# xmcd
#
# Track frame offsets: 
#        150
#        17140
#        49323
#        74893
#        96330
#        116963
#        131213
#        146713
#        161050
#        172125
#        194023
#        207220
#        226600
#
# Disc length: 3360 seconds
#
# Revision: 4
# Processed by: cddbd v1.5.2PL0 Copyright (c) Steve Scherf et al.
# Submitted via: ExactAudioCopy v1.0b3
#
DISCID=d30d1e0d
DTITLE=Clarence Gatemouth Brown - Long Way Home
DYEAR=1996
DGENRE=Blues
TTITLE0=Blues Power
TTITLE1=Somebody Else
TTITLE2=Dockside Boogie
TTITLE3=I'll Be There (If You Ever Want Me)
TTITLE4=Here I Go Again
TTITLE5=Deep, Deep Water
TTITLE6=The Blues Walk
TTITLE7=Mean And Evil
TTITLE8=Underhand Boogie
TTITLE9=Don't Think Twice
TTITLE10=Tobacco Road
TTITLE11=Don't Cry Sister
TTITLE12=Long Way Home
EXTD=
EXTT0=
EXTT1=
EXTT2=
EXTT3=
EXTT4=
EXTT5=
EXTT6=
EXTT7=
EXTT8=
EXTT9=
EXTT10=
EXTT11=
EXTT12=
PLAYORDER=
